<svg width="137" height="97" viewBox="0 0 137 97" fill="none" xmlns="http://www.w3.org/2000/svg">
<path d="M69.768 97V7.39999H32.776C23.6453 7.39999 16.4773 9.448 11.272 13.544C6.06666 17.64 3.464 23.272 3.464 30.44C3.464 35.7307 4.95733 40.2107 7.94399 43.88C10.8453 47.464 15.0267 49.9813 20.488 51.432V52.072C14.088 53.352 9.13866 55.912 5.64 59.752C2.05599 63.592 0.263992 68.328 0.263992 73.96C0.263992 78.6533 1.45866 82.7493 3.848 86.248C6.152 89.6613 9.47999 92.3067 13.832 94.184C18.184 96.0613 23.2613 97 29.064 97H69.768ZM32.648 86.12C26.3333 86.12 21.3413 84.6693 17.672 81.768C14.0027 78.7813 12.168 74.7707 12.168 69.736C12.168 64.7013 14.0453 60.7333 17.8 57.832C21.5547 54.9307 26.504 53.48 32.648 53.48H58.248V86.12H32.648ZM35.464 50.92C29.1493 50.92 24.1573 49.4693 20.488 46.568C16.8187 43.5813 14.984 39.5707 14.984 34.536C14.984 29.5013 16.8187 25.5333 20.488 22.632C24.1573 19.7307 29.1493 18.28 35.464 18.28H58.248V50.92H35.464Z" fill="#111214" fill-opacity="0.96"/>
<path d="M58.232 97V7.39999H69.624V50.92H82.68L116.472 7.39999H129.272L94.968 51.432L130.296 97H116.344L82.552 53.48H69.624V97H58.232Z" fill="#FF6542"/>
</svg>
