<svg width="121" height="121" viewBox="0 0 121 121" fill="none" xmlns="http://www.w3.org/2000/svg">
<path d="M58.3939 91.4482L50.4561 118.796C49.732 121.301 46.0233 120.521 46.3416 117.933L49.9007 89.6764C50.1647 87.5903 47.5574 86.4364 46.207 88.0441L27.8827 109.781C26.204 111.769 23.1299 109.546 24.4775 107.313L39.1602 82.9489C40.2457 81.1435 38.3318 79.0293 36.4409 79.9476L10.909 92.3064C8.576 93.4351 6.66616 90.146 8.79018 88.658L32.0606 72.4049C33.7805 71.2031 32.8915 68.4873 30.7988 68.5536L2.4716 69.4109C-0.120744 69.4889 -0.533786 65.7001 2.00959 65.2148L29.8452 59.8772C31.9081 59.4794 32.1876 56.6351 30.2512 55.8383L4.03059 45.0392C1.63145 44.055 2.78415 40.4202 5.31353 41.0153L32.9008 47.5248C34.9394 48.0084 36.3518 45.5191 34.9025 43.9999L15.3127 23.41C13.5223 21.5227 16.0457 18.6873 18.1081 20.2606L40.6808 37.4823C42.3458 38.7542 44.6481 37.0664 43.932 35.0796L34.3644 8.26562C33.486 5.81511 36.939 4.24538 38.1938 6.53309L51.8448 31.4996C52.8525 33.3431 55.631 32.743 55.7913 30.6384L57.9072 2.22717C58.1029 -0.370324 61.8929 -0.387394 62.1025 2.20827L64.4743 30.5993C64.6534 32.7023 67.4373 33.2774 68.4283 31.4249L81.8539 6.33644C83.0786 4.03757 86.555 5.57608 85.6987 8.03441L76.373 34.9334C75.6843 36.9267 77.9923 38.5936 79.6458 37.3068L102.062 19.8825C104.11 18.2906 106.659 21.1032 104.886 23.0065L85.4825 43.7721C84.047 45.3043 85.4817 47.7807 87.5159 47.2788L115.043 40.5211C117.567 39.9032 118.752 43.518 116.362 44.5333L90.2402 55.5681C88.3112 56.3823 88.6162 59.224 90.6827 59.6032L118.565 64.6898C121.122 65.1521 120.743 68.9445 118.141 68.8899L89.8073 68.2878C87.714 68.2404 86.8496 70.9641 88.5803 72.1503L111.996 88.1932C114.142 89.6619 112.262 92.9681 109.91 91.8605L84.268 79.7322C82.3689 78.831 80.4741 80.9718 81.5758 82.7579L96.4775 106.989C97.8451 109.21 94.7911 111.46 93.0946 109.487L74.5752 87.9163C73.2104 86.3209 70.6137 87.4982 70.8965 89.5818L74.7098 117.805C75.0609 120.391 71.3593 121.194 70.6033 118.705L62.4195 91.4301C61.8165 89.4142 58.9693 89.4271 58.3844 91.4482H58.3939Z" fill="#F4F2ED"/>
</svg>
