<svg width="121" height="121" viewBox="0 0 121 121" fill="none" xmlns="http://www.w3.org/2000/svg">
<path d="M58.3934 91.4481L50.4556 118.796C49.7315 121.301 46.0228 120.521 46.3411 117.933L49.9002 89.6763C50.1642 87.5902 47.5569 86.4363 46.2065 88.044L27.8822 109.781C26.2035 111.769 23.1294 109.546 24.477 107.313L39.1597 82.9488C40.2452 81.1434 38.3313 79.0292 36.4404 79.9475L10.9085 92.3064C8.57551 93.4351 6.66567 90.1459 8.78969 88.6579L32.0601 72.4048C33.78 71.203 32.891 68.4872 30.7983 68.5535L2.47111 69.4108C-0.121232 69.4888 -0.534273 65.7 2.0091 65.2147L29.8447 59.8771C31.9076 59.4793 32.1871 56.635 30.2507 55.8382L4.0301 45.0391C1.63096 44.0549 2.78366 40.4201 5.31304 41.0152L32.9003 47.5247C34.9389 48.0083 36.3513 45.519 34.902 43.9998L15.3122 23.4099C13.5218 21.5226 16.0452 18.6872 18.1076 20.2605L40.6803 37.4822C42.3453 38.7541 44.6476 37.0663 43.9315 35.0795L34.3639 8.26557C33.4855 5.81506 36.9385 4.24533 38.1933 6.53304L51.8443 31.4995C52.852 33.343 55.6305 32.7429 55.7908 30.6383L57.9067 2.22712C58.1024 -0.370378 61.8924 -0.387448 62.102 2.20822L64.4738 30.5992C64.6529 32.7022 67.4368 33.2773 68.4278 31.4248L81.8534 6.33639C83.0781 4.03752 86.5545 5.57603 85.6982 8.03436L76.3725 34.9333C75.6838 36.9266 77.9918 38.5935 79.6453 37.3067L102.062 19.8824C104.11 18.2905 106.659 21.1031 104.886 23.0064L85.482 43.772C84.0465 45.3042 85.4812 47.7806 87.5154 47.2787L115.043 40.521C117.567 39.9031 118.752 43.5179 116.362 44.5332L90.2397 55.568C88.3107 56.3822 88.6157 59.2239 90.6822 59.6031L118.565 64.6897C121.122 65.152 120.743 68.9444 118.141 68.8898L89.8068 68.2877C87.7135 68.2403 86.8491 70.964 88.5798 72.1502L111.996 88.1931C114.142 89.6618 112.262 92.9681 109.91 91.8605L84.2675 79.7321C82.3684 78.8309 80.4736 80.9717 81.5753 82.7578L96.477 106.989C97.8446 109.21 94.7906 111.46 93.0941 109.487L74.5747 87.9162C73.2099 86.3208 70.6132 87.4981 70.896 89.5817L74.7093 117.805C75.0604 120.391 71.3588 121.194 70.6028 118.705L62.419 91.43C61.816 89.4141 58.9688 89.427 58.3839 91.4481H58.3934Z" fill="#FF6542"/>
</svg>
